<svg width="1000" height="1000" viewBox="0 0 1000 1000" fill="none" xmlns="http://www.w3.org/2000/svg">
<rect x="50" y="250" width="900" height="500" rx="100" fill="#262261"/>
<path d="M172.011 560.805H277.782C287.667 560.805 296.366 557.434 299.002 552.629L331.425 493.232L377.754 623.505C379.797 629.211 389.945 633.215 401.346 632.615C412.681 632.114 421.446 627.309 421.446 621.536V560.805H484.052C494.992 560.805 504.284 556.767 505.865 551.261L540.529 430.499L615.788 640.89C617.699 646.163 626.793 650 637.338 650C637.404 650 637.404 650 637.469 650C648.014 650 657.108 646.229 659.085 640.99L692.694 553.33H709.565L734.937 575.087C738.825 578.423 745.811 580.492 753.455 580.559C760.638 580.693 768.283 578.724 772.369 575.487L797.609 555.799H827.989C840.181 555.799 850 550.794 850 544.654C850 538.447 840.181 533.475 827.989 533.475H785.681C778.3 533.475 771.248 535.411 767.228 538.547L754.839 548.224L741.198 536.479C737.243 533.075 729.994 531.006 722.218 531.006H674.572C664.028 531.006 654.933 534.777 652.956 540.016L638.26 578.323L559.904 359.189C557.993 353.816 548.305 349.745 537.827 350.012C527.019 350.113 517.925 354.15 516.409 359.589L465.073 538.447H399.501C397.063 538.447 394.756 538.648 392.581 539.015L357.72 441.01C355.875 435.904 347.307 432.067 337.027 431.867C325.692 431.066 317.52 435.003 314.818 440.042L261.109 538.481H172.011C159.819 538.481 150 543.453 150 549.626C150 555.799 159.819 560.805 172.011 560.805Z" fill="white"/>
</svg>
